<svg xmlns="http://www.w3.org/2000/svg" viewBox="0 0 760 330">
  <defs>
    <linearGradient id="bg" x1="0" y1="0" x2="0" y2="1">
      <stop offset="0" stop-color="#ffe0e5"/>
      <stop offset=".58" stop-color="#fff4f4"/>
      <stop offset="1" stop-color="#fff8ef"/>
    </linearGradient>
    <pattern id="grid" width="34" height="34" patternUnits="userSpaceOnUse">
      <path d="M34 0H0v34" fill="none" stroke="#ff9bae" stroke-width="2" opacity=".18"/>
    </pattern>
    <filter id="shadow" x="-20%" y="-20%" width="140%" height="150%">
      <feDropShadow dx="0" dy="12" stdDeviation="13" flood-color="#d96278" flood-opacity=".22"/>
    </filter>
  </defs>
  <rect width="760" height="330" rx="42" fill="url(#bg)"/>
  <rect width="760" height="330" rx="42" fill="url(#grid)"/>
  <g fill="#ff8ea5" opacity=".8">
    <circle cx="95" cy="78" r="18"/><circle cx="122" cy="72" r="14"/><circle cx="110" cy="98" r="16"/><circle cx="78" cy="100" r="12"/>
    <circle cx="632" cy="64" r="18"/><circle cx="660" cy="72" r="15"/><circle cx="642" cy="95" r="16"/><circle cx="610" cy="92" r="12"/>
  </g>
  <g fill="#ff6f8d" opacity=".88">
    <path d="M197 72c24-28 56-15 53 18-2 28-30 49-53 66-23-17-51-38-53-66-3-33 29-46 53-18z"/>
    <path d="M486 80c20-23 48-12 46 16-2 23-26 42-46 56-20-14-44-33-46-56-2-28 26-39 46-16z" opacity=".38"/>
  </g>
  <g transform="translate(80 108)" filter="url(#shadow)">
    <ellipse cx="72" cy="100" rx="56" ry="56" fill="#fff7fb"/>
    <path d="M33 67L18 17l48 32z" fill="#fff" stroke="#ffc1d1" stroke-width="7"/>
    <path d="M110 67l20-50-52 30z" fill="#fff" stroke="#ffc1d1" stroke-width="7"/>
    <circle cx="54" cy="96" r="7" fill="#613742"/>
    <circle cx="91" cy="96" r="7" fill="#613742"/>
    <path d="M62 111q11 10 23 0" fill="none" stroke="#613742" stroke-width="5" stroke-linecap="round"/>
    <circle cx="35" cy="114" r="9" fill="#ffadc0" opacity=".8"/>
    <circle cx="108" cy="114" r="9" fill="#ffadc0" opacity=".8"/>
    <path d="M100 42c26-20 50-6 52 24-28 5-45-2-52-24z" fill="#ff5d86"/>
    <circle cx="119" cy="53" r="7" fill="#fff5ab"/>
  </g>
  <g transform="translate(545 96)" filter="url(#shadow)">
    <ellipse cx="70" cy="118" rx="50" ry="58" fill="#b7ea8f"/>
    <circle cx="72" cy="58" r="43" fill="#c7f2a5"/>
    <circle cx="55" cy="48" r="5" fill="#613742"/>
    <circle cx="90" cy="48" r="5" fill="#613742"/>
    <path d="M60 68q12 9 24 0" fill="none" stroke="#613742" stroke-width="5" stroke-linecap="round"/>
    <circle cx="50" cy="63" r="8" fill="#ff9cb7" opacity=".76"/>
    <circle cx="98" cy="63" r="8" fill="#ff9cb7" opacity=".76"/>
    <path d="M34 116c-32 2-44 26-22 48" fill="none" stroke="#8bd36e" stroke-width="13" stroke-linecap="round"/>
    <path d="M108 118c34 3 42 28 18 49" fill="none" stroke="#8bd36e" stroke-width="13" stroke-linecap="round"/>
    <path d="M73 18c16-26 44-22 48 5-26 7-40 4-48-5z" fill="#ff6388"/>
    <path d="M54 26c-4-25 20-40 40-24-12 22-25 29-40 24z" fill="#ff8ea5"/>
    <path d="M76 92c30-26 58-1 42 30-8 17-26 30-42 42-17-12-35-25-43-42-16-31 12-56 43-30z" fill="#ff668a"/>
  </g>
  <g fill="#ff8ea5" opacity=".42">
    <path d="M0 290c48-40 96-36 136 0v40H0z"/>
    <path d="M624 290c50-42 94-38 136 0v40H624z"/>
  </g>
</svg>
