<svg xmlns="http://www.w3.org/2000/svg" viewBox="0 0 760 330">
  <defs>
    <linearGradient id="bg" x1="0" y1="0" x2="0" y2="1">
      <stop offset="0" stop-color="#d8f3ff"/>
      <stop offset=".62" stop-color="#effaff"/>
      <stop offset="1" stop-color="#fffdf0"/>
    </linearGradient>
    <filter id="shadow" x="-20%" y="-20%" width="140%" height="150%">
      <feDropShadow dx="0" dy="12" stdDeviation="13" flood-color="#72a9d2" flood-opacity=".24"/>
    </filter>
  </defs>
  <rect width="760" height="330" rx="42" fill="url(#bg)"/>
  <path d="M38 96a72 72 0 0 1 128 42" fill="none" stroke="#9bdcff" stroke-width="16" stroke-linecap="round"/>
  <path d="M38 96a72 72 0 0 1 128 42" fill="none" stroke="#ffd6e7" stroke-width="8" stroke-linecap="round"/>
  <g fill="#fff" opacity=".9">
    <circle cx="100" cy="272" r="34"/><circle cx="142" cy="262" r="42"/><circle cx="194" cy="276" r="35"/><rect x="74" y="270" width="150" height="42" rx="21"/>
    <circle cx="585" cy="62" r="38"/><circle cx="630" cy="56" r="48"/><circle cx="682" cy="72" r="34"/><rect x="552" y="70" width="170" height="46" rx="23"/>
  </g>
  <g fill="#ffd86b" opacity=".9">
    <path d="M604 206l8 17 18 3-13 13 3 18-16-9-16 9 3-18-13-13 18-3z"/>
    <path d="M702 236l5 11 12 2-9 8 3 12-11-6-10 6 2-12-8-8 12-2z"/>
  </g>
  <g transform="translate(76 104)" filter="url(#shadow)">
    <ellipse cx="82" cy="98" rx="67" ry="56" fill="#fff"/>
    <ellipse cx="44" cy="42" rx="34" ry="48" fill="#bce9ff" transform="rotate(-24 44 42)"/>
    <ellipse cx="121" cy="42" rx="34" ry="48" fill="#bce9ff" transform="rotate(24 121 42)"/>
    <circle cx="59" cy="96" r="7" fill="#31506a"/>
    <circle cx="107" cy="96" r="7" fill="#31506a"/>
    <path d="M76 110q8 8 17 0" fill="none" stroke="#31506a" stroke-width="5" stroke-linecap="round"/>
    <circle cx="40" cy="114" r="10" fill="#ffd6e7"/>
    <circle cx="123" cy="114" r="10" fill="#ffd6e7"/>
    <path d="M28 132c-22 22-40 36-56 38" stroke="#acdff7" stroke-width="12" stroke-linecap="round"/>
    <path d="M136 132c20 22 38 35 58 39" stroke="#acdff7" stroke-width="12" stroke-linecap="round"/>
  </g>
  <g transform="translate(548 98)" filter="url(#shadow)">
    <ellipse cx="70" cy="118" rx="50" ry="58" fill="#b6ec91"/>
    <circle cx="72" cy="58" r="43" fill="#c4f3a6"/>
    <circle cx="55" cy="48" r="5" fill="#31506a"/>
    <circle cx="90" cy="48" r="5" fill="#31506a"/>
    <path d="M60 68q12 9 24 0" fill="none" stroke="#31506a" stroke-width="5" stroke-linecap="round"/>
    <path d="M82 14l18-22M52 18L34 1" stroke="#8ed174" stroke-width="8" stroke-linecap="round"/>
    <circle cx="50" cy="63" r="8" fill="#ffd6e7" opacity=".75"/>
    <circle cx="98" cy="63" r="8" fill="#ffd6e7" opacity=".75"/>
    <path d="M36 118c-28 2-43 24-26 47" fill="none" stroke="#8ed174" stroke-width="13" stroke-linecap="round"/>
    <path d="M108 120c30 4 40 27 22 48" fill="none" stroke="#8ed174" stroke-width="13" stroke-linecap="round"/>
    <circle cx="48" cy="134" r="18" fill="#79c9ff"/><circle cx="92" cy="134" r="18" fill="#79c9ff"/>
  </g>
</svg>
