<svg xmlns="http://www.w3.org/2000/svg" viewBox="0 0 760 330">
  <defs>
    <linearGradient id="bg" x1="0" y1="0" x2="0" y2="1">
      <stop offset="0" stop-color="#ffe5f0"/>
      <stop offset=".58" stop-color="#fff3f8"/>
      <stop offset="1" stop-color="#fff9fb"/>
    </linearGradient>
    <radialGradient id="glow" cx=".35" cy=".35" r=".7">
      <stop offset="0" stop-color="#fff"/>
      <stop offset="1" stop-color="#fff" stop-opacity="0"/>
    </radialGradient>
    <filter id="shadow" x="-20%" y="-20%" width="140%" height="150%">
      <feDropShadow dx="0" dy="12" stdDeviation="14" flood-color="#d96f9f" flood-opacity=".22"/>
    </filter>
  </defs>
  <rect width="760" height="330" rx="42" fill="url(#bg)"/>
  <circle cx="86" cy="58" r="42" fill="#fff" opacity=".82"/>
  <circle cx="152" cy="46" r="38" fill="#fff" opacity=".62"/>
  <circle cx="640" cy="50" r="55" fill="#fff" opacity=".56"/>
  <path d="M20 252c70-32 120-8 188-26 74-20 134-74 240-42 95 28 136 16 282 38v108H20z" fill="#fff" opacity=".38"/>
  <g opacity=".55" fill="none" stroke="#f7a9c8" stroke-width="4">
    <path d="M62 246c36-42 78-42 116 0"/>
    <path d="M560 238c46-40 90-36 126 4"/>
  </g>

  <g transform="translate(58 96)" filter="url(#shadow)">
    <ellipse cx="82" cy="95" rx="69" ry="60" fill="#fff7fb"/>
    <ellipse cx="47" cy="18" rx="17" ry="55" fill="#ffd8e7" transform="rotate(-14 47 18)"/>
    <ellipse cx="106" cy="18" rx="17" ry="55" fill="#ffd8e7" transform="rotate(14 106 18)"/>
    <ellipse cx="47" cy="20" rx="9" ry="39" fill="#ffb5d1" transform="rotate(-14 47 20)"/>
    <ellipse cx="106" cy="20" rx="9" ry="39" fill="#ffb5d1" transform="rotate(14 106 20)"/>
    <circle cx="57" cy="92" r="7" fill="#3d2b36"/>
    <circle cx="105" cy="92" r="7" fill="#3d2b36"/>
    <path d="M78 103q8 8 16 0" fill="none" stroke="#3d2b36" stroke-width="5" stroke-linecap="round"/>
    <path d="M29 115h-28M134 115h28" stroke="#3d2b36" stroke-width="4" stroke-linecap="round" opacity=".55"/>
    <circle cx="38" cy="112" r="10" fill="#ffbfd6" opacity=".72"/>
    <circle cx="121" cy="112" r="10" fill="#ffbfd6" opacity=".72"/>
    <path d="M124 44c24-8 45 3 55 25-23 10-45 2-55-25z" fill="#ff78ae"/>
    <circle cx="142" cy="58" r="8" fill="#fff"/>
  </g>

  <g transform="translate(550 96)" filter="url(#shadow)">
    <ellipse cx="72" cy="112" rx="53" ry="58" fill="#aeea8d"/>
    <circle cx="74" cy="53" r="46" fill="#b9f199"/>
    <circle cx="56" cy="43" r="5" fill="#365043"/>
    <circle cx="92" cy="43" r="5" fill="#365043"/>
    <path d="M62 63q12 10 25 0" fill="none" stroke="#365043" stroke-width="5" stroke-linecap="round"/>
    <circle cx="47" cy="58" r="8" fill="#ff9fc0" opacity=".7"/>
    <circle cx="101" cy="58" r="8" fill="#ff9fc0" opacity=".7"/>
    <path d="M35 99c-38 3-46 34-15 48" fill="none" stroke="#80d56e" stroke-width="14" stroke-linecap="round"/>
    <path d="M109 111c38 4 50 34 22 54" fill="none" stroke="#80d56e" stroke-width="14" stroke-linecap="round"/>
    <path d="M78 11l12-18M57 14L45-2M99 23l24-9" stroke="#80d56e" stroke-width="9" stroke-linecap="round"/>
    <path d="M43 124c28 20 56 20 85-2" fill="none" stroke="#7ad06b" stroke-width="7" stroke-linecap="round" opacity=".55"/>
    <path d="M83 84c36-32 70-2 51 34-10 20-31 36-51 50-20-14-41-30-51-50-19-36 15-66 51-34z" fill="#ff78ae"/>
  </g>

  <g fill="#ff9fc0" opacity=".78">
    <path d="M26 292c22-32 52-32 74 0-28 12-49 12-74 0z"/>
    <circle cx="56" cy="276" r="12"/>
    <circle cx="80" cy="284" r="9"/>
    <circle cx="34" cy="286" r="8"/>
  </g>
  <g transform="translate(670 268)" fill="#ff9fc0" opacity=".75">
    <circle cx="0" cy="0" r="12"/><circle cx="21" cy="-3" r="9"/><circle cx="11" cy="17" r="10"/><circle cx="-11" cy="15" r="8"/>
  </g>
</svg>
