<svg xmlns="http://www.w3.org/2000/svg" viewBox="0 0 760 330">
  <defs>
    <linearGradient id="bg" x1="0" y1="0" x2="0" y2="1">
      <stop offset="0" stop-color="#211139"/>
      <stop offset=".58" stop-color="#160920"/>
      <stop offset="1" stop-color="#0d0617"/>
    </linearGradient>
    <filter id="glow" x="-30%" y="-30%" width="160%" height="170%">
      <feDropShadow dx="0" dy="0" stdDeviation="9" flood-color="#d989ff" flood-opacity=".75"/>
      <feDropShadow dx="0" dy="12" stdDeviation="18" flood-color="#000" flood-opacity=".38"/>
    </filter>
  </defs>
  <rect width="760" height="330" rx="42" fill="url(#bg)"/>
  <circle cx="122" cy="66" r="33" fill="#ffd9fb"/>
  <circle cx="137" cy="54" r="34" fill="#211139"/>
  <g fill="#f4c3ff" opacity=".85">
    <path d="M65 54l6 13 14 2-11 9 3 14-12-7-12 7 3-14-11-9 14-2z"/>
    <path d="M690 64l5 10 11 2-8 7 2 11-10-5-10 5 2-11-8-7 11-2z"/>
    <circle cx="260" cy="52" r="4"/><circle cx="520" cy="42" r="4"/><circle cx="604" cy="92" r="3"/>
  </g>
  <path d="M0 254c78-24 114-42 202-20 126 32 190-70 314-22 82 32 144-2 244 28v90H0z" fill="#2d1642" opacity=".72"/>
  <g stroke="#5b347c" stroke-width="5" fill="none" opacity=".55">
    <path d="M60 246h630"/>
    <path d="M132 232v-54M180 232v-82M610 234v-92M668 232v-76"/>
    <path d="M576 158h126v76H576z"/>
    <path d="M584 158c28-50 80-50 110 0"/>
  </g>
  <g transform="translate(88 100)" filter="url(#glow)">
    <ellipse cx="82" cy="97" rx="62" ry="56" fill="#fff7fb"/>
    <path d="M37 70L16 8l59 35z" fill="#141018" stroke="#f0d1ff" stroke-width="5"/>
    <path d="M127 70l26-62-64 34z" fill="#141018" stroke="#f0d1ff" stroke-width="5"/>
    <circle cx="61" cy="92" r="7" fill="#141018"/>
    <circle cx="104" cy="92" r="7" fill="#141018"/>
    <path d="M72 111q12 13 26 0" stroke="#141018" stroke-width="5" fill="none" stroke-linecap="round"/>
    <circle cx="121" cy="44" r="19" fill="#ff77c6"/>
    <path d="M112 44h18M121 35v18" stroke="#141018" stroke-width="4" stroke-linecap="round"/>
    <circle cx="42" cy="113" r="9" fill="#ff74c6" opacity=".7"/>
    <circle cx="122" cy="113" r="9" fill="#ff74c6" opacity=".7"/>
  </g>
  <g transform="translate(548 106)" filter="url(#glow)">
    <ellipse cx="70" cy="112" rx="50" ry="56" fill="#9bdd7a"/>
    <circle cx="72" cy="54" r="43" fill="#a8e985"/>
    <circle cx="55" cy="43" r="5" fill="#1c3025"/>
    <circle cx="89" cy="43" r="5" fill="#1c3025"/>
    <path d="M60 63q11 9 24 0" fill="none" stroke="#1c3025" stroke-width="5" stroke-linecap="round"/>
    <path d="M34 104c-40-14-52 18-26 42" fill="none" stroke="#7ecb69" stroke-width="13" stroke-linecap="round"/>
    <path d="M107 108c42-8 50 26 18 44" fill="none" stroke="#7ecb69" stroke-width="13" stroke-linecap="round"/>
    <path d="M115 28c32-34 70-20 76 19-32 11-58 3-76-19z" fill="#4c2670" stroke="#b985ff" stroke-width="4"/>
  </g>
  <g opacity=".72" fill="#d389ff">
    <circle cx="50" cy="284" r="6"/><circle cx="78" cy="286" r="7"/><circle cx="690" cy="282" r="8"/><circle cx="718" cy="284" r="5"/>
    <path d="M27 308c28-26 62-26 90 0z"/><path d="M638 310c24-24 56-24 88 0z"/>
  </g>
</svg>
